<?xml version="1.0" encoding="utf-8"?>
<!DOCTYPE svg PUBLIC "-//W3C//DTD SVG 1.1//EN" "http://www.w3.org/Graphics/SVG/1.1/DTD/svg11.dtd">
<svg version="1.1" xmlns="http://www.w3.org/2000/svg" xmlns:xlink="http://www.w3.org/1999/xlink" x="0px" y="0px" viewBox="0 0 1000 1000" enable-background="new 0 0 1000 1000" xml:space="preserve">
<g>
<path style="fill: white" d="M990,733.3c0,86.5-70.1,156.5-156.5,156.5H166.5C80.1,889.8,10,819.7,10,733.3V266.7c0-86.5,70.1-156.5,156.5-156.5h666.9c86.5,0,156.5,70.1,156.5,156.5V733.3L990,733.3z M943.7,266.7c0-60.9-49.3-110.2-110.2-110.2H166.5c-60.9,0-110.2,49.3-110.2,110.2v466.6c0,60.9,49.3,110.2,110.2,110.2h666.9c60.9,0,110.2-49.3,110.2-110.2V266.7z"/>
<path style="fill: white" d="M512.4,524.4c-20.6,0-41.3-7.1-58.1-21.4L75.1,184c-9.8-8.2-11.1-22.9-2.8-32.7c8.2-9.8,22.9-11.1,32.7-2.8l379.2,319.1c16.4,13.9,40.1,13.9,56.4,0l373.8-314.6c9.8-8.2,24.4-7,32.7,2.8c8.2,9.8,7,24.4-2.8,32.7L570.5,503.1C553.6,517.3,533,524.4,512.4,524.4z"/>
</g>
</svg>