<?xml version="1.0" encoding="iso-8859-1"?>
<!-- Generator: Adobe Illustrator 19.0.0, SVG Export Plug-In . SVG Version: 6.00 Build 0)  -->
<svg version="1.1" id="Layer_1" xmlns="http://www.w3.org/2000/svg" xmlns:xlink="http://www.w3.org/1999/xlink" x="0px" y="0px"
	 viewBox="0 0 512 512" style="enable-background:new 0 0 512 512;" xml:space="preserve">
<path style="fill:#42315E;" d="M72.549,215.852V72.571c0-2.275,1.845-4.12,4.121-4.12h358.66c2.276,0,4.121,1.845,4.121,4.12
	v143.281h30.827V70.526c0-18.177-14.738-32.912-32.918-32.912H74.64c-18.18,0-32.918,14.735-32.918,32.912v145.326H72.549z"/>
<path style="fill:#54B8D9;" d="M512,206.395V474.21c0,5.675-4.605,10.29-10.292,10.29H10.291C4.605,484.5,0,479.886,0,474.21
	V206.395c0-5.685,4.605-10.29,10.291-10.29h491.417C507.395,196.105,512,200.709,512,206.395z"/>
<path style="fill:#2498BF;" d="M501.708,196.105h-20.604c5.687,0,10.292,4.604,10.292,10.29V474.21
	c0,5.675-4.605,10.29-10.292,10.29h20.604c5.687,0,10.292-4.614,10.292-10.29V206.395C512,200.709,507.395,196.105,501.708,196.105z
	"/>
<ellipse style="fill:#F5B348;" cx="102.25" cy="337.48" rx="76.57" ry="76.55"/>
<ellipse style="fill:#FAD06A;" cx="102.25" cy="337.48" rx="55.963" ry="55.952"/>
<ellipse style="fill:#D95291;" cx="102.25" cy="337.48" rx="28.29" ry="28.29"/>
<ellipse style="fill:#F5B348;" cx="409.75" cy="337.48" rx="76.57" ry="76.55"/>
<ellipse style="fill:#FAD06A;" cx="409.75" cy="337.48" rx="55.963" ry="55.952"/>
<ellipse style="fill:#D95291;" cx="409.75" cy="337.48" rx="28.29" ry="28.29"/>
<path style="fill:#FAD06A;" d="M299.911,376.226H212.09c-2.209,0-4-1.791-4-4V302.73c0-2.209,1.791-4,4-4h87.821
	c2.209,0,4,1.791,4,4v69.496C303.91,374.435,302.12,376.226,299.911,376.226z"/>
<path style="fill:#F5B348;" d="M283.307,298.731v77.495h16.604c2.209,0,4-1.79,4-3.999V302.73c0-2.209-1.791-3.999-4-3.999
	L283.307,298.731L283.307,298.731z"/>
<path style="fill:#D95291;" d="M303.914,353.836v18.393c0,2.209-1.791,3.999-4,3.999h-87.827c-2.209,0-4-1.79-4-3.999v-18.393
	H303.914z"/>
<path style="fill:#A63F70;" d="M303.914,353.836v18.393c0,2.209-1.791,3.999-4,3.999H283.31v-22.392H303.914z"/>
<path style="fill:#D95291;" d="M512,434.731v39.479c0,5.675-4.605,10.29-10.292,10.29H10.291C4.605,484.5,0,479.886,0,474.21
	v-39.479H512z"/>
<g>
	<path style="fill:#FAD06A;" d="M336.35,225.924v29.074c0,2.209-1.791,3.999-4,3.999h-152.7c-2.209,0-4-1.791-4-3.999v-29.074
		c0-2.209,1.791-3.999,4-3.999h152.7C334.559,221.925,336.35,223.716,336.35,225.924z"/>
	<path style="fill:#FAD06A;" d="M349.868,78.999H162.132c-2.209,0-4-1.791-4-4V31.5c0-2.209,1.791-4,4-4h187.735
		c2.209,0,4,1.791,4,4V75C353.867,77.208,352.077,78.999,349.868,78.999z"/>
</g>
<path style="fill:#F5B348;" d="M349.867,27.5h-20.682c2.209,0,4,1.79,4,3.999V75c0,2.209-1.791,3.999-4,3.999h20.682
	c2.209,0,4-1.791,4-3.999V31.499C353.867,29.29,352.076,27.5,349.867,27.5z"/>
<path style="fill:#A63F70;" d="M512,434.731v39.479c0,5.675-4.605,10.29-10.292,10.29h-20.604c5.687,0,10.292-4.614,10.292-10.29
	v-39.479H512z"/>
<g>
	<path style="fill:#42315E;" d="M215.59,240.462v18.536h-15v-18.536c0-4.139,3.36-7.499,7.5-7.499
		C212.23,232.963,215.59,236.322,215.59,240.462z"/>
	<path style="fill:#42315E;" d="M311.41,240.462v18.536h-15v-18.536c0-4.139,3.36-7.499,7.5-7.499
		C308.05,232.963,311.41,236.322,311.41,240.462z"/>
	<path style="fill:#42315E;" d="M263,240.462v18.536h-15v-18.536c0-4.139,3.36-7.499,7.5-7.499
		C259.65,232.963,263,236.322,263,240.462z"/>
	<circle style="fill:#42315E;" cx="232.46" cy="328.56" r="7.5"/>
	<circle style="fill:#42315E;" cx="280.74" cy="328.56" r="7.5"/>
</g>
</svg>
