<svg xmlns="http://www.w3.org/2000/svg" viewBox="0 0 512 512"><path d="M72.549 215.852V72.571a4.12 4.12 0 014.121-4.12h358.66a4.12 4.12 0 014.121 4.12v143.281h30.827V70.526c0-18.177-14.738-32.912-32.918-32.912H74.64c-18.18 0-32.918 14.735-32.918 32.912v145.326h30.827z" fill="#42315e"/><path d="M512 206.395V474.21c0 5.675-4.605 10.29-10.292 10.29H10.291C4.605 484.5 0 479.886 0 474.21V206.395c0-5.685 4.605-10.29 10.291-10.29h491.417c5.687 0 10.292 4.604 10.292 10.29z" fill="#54b8d9"/><path d="M501.708 196.105h-20.604c5.687 0 10.292 4.604 10.292 10.29V474.21c0 5.675-4.605 10.29-10.292 10.29h20.604c5.687 0 10.292-4.614 10.292-10.29V206.395c0-5.686-4.605-10.29-10.292-10.29z" fill="#2498bf"/><ellipse cx="102.25" cy="337.48" rx="76.57" ry="76.55" fill="#f5b348"/><ellipse cx="102.25" cy="337.48" rx="55.963" ry="55.952" fill="#fad06a"/><circle cx="102.25" cy="337.48" fill="#d95291" r="28.29"/><ellipse cx="409.75" cy="337.48" rx="76.57" ry="76.55" fill="#f5b348"/><ellipse cx="409.75" cy="337.48" rx="55.963" ry="55.952" fill="#fad06a"/><circle cx="409.75" cy="337.48" fill="#d95291" r="28.29"/><path d="M299.911 376.226H212.09a4 4 0 01-4-4V302.73a4 4 0 014-4h87.821a4 4 0 014 4v69.496a4 4 0 01-4 4z" fill="#fad06a"/><path d="M283.307 298.731v77.495h16.604a4 4 0 004-3.999V302.73a4 4 0 00-4-3.999h-16.604z" fill="#f5b348"/><path d="M303.914 353.836v18.393a4 4 0 01-4 3.999h-87.827a4 4 0 01-4-3.999v-18.393h95.827z" fill="#d95291"/><path d="M303.914 353.836v18.393a4 4 0 01-4 3.999H283.31v-22.392h20.604z" fill="#a63f70"/><path d="M512 434.731v39.479c0 5.675-4.605 10.29-10.292 10.29H10.291C4.605 484.5 0 479.886 0 474.21v-39.479h512z" fill="#d95291"/><g fill="#fad06a"><path d="M336.35 225.924v29.074a4 4 0 01-4 3.999h-152.7a4 4 0 01-4-3.999v-29.074a4 4 0 014-3.999h152.7a4 4 0 014 3.999zM349.868 78.999H162.132a4 4 0 01-4-4V31.5a4 4 0 014-4h187.735a4 4 0 014 4V75a4 4 0 01-3.999 3.999z"/></g><path d="M349.867 27.5h-20.682a4 4 0 014 3.999V75a4 4 0 01-4 3.999h20.682a4 4 0 004-3.999V31.499a4 4 0 00-4-3.999z" fill="#f5b348"/><path d="M512 434.731v39.479c0 5.675-4.605 10.29-10.292 10.29h-20.604c5.687 0 10.292-4.614 10.292-10.29v-39.479H512z" fill="#a63f70"/><g fill="#42315e"><path d="M215.59 240.462v18.536h-15v-18.536a7.503 7.503 0 017.5-7.499c4.14 0 7.5 3.359 7.5 7.499zM311.41 240.462v18.536h-15v-18.536a7.503 7.503 0 017.5-7.499c4.14 0 7.5 3.359 7.5 7.499zM263 240.462v18.536h-15v-18.536a7.503 7.503 0 017.5-7.499c4.15 0 7.5 3.359 7.5 7.499z"/><circle cx="232.46" cy="328.56" r="7.5"/><circle cx="280.74" cy="328.56" r="7.5"/></g></svg>