<svg xmlns="http://www.w3.org/2000/svg" height="512pt" width="512pt" viewBox="0 0 512 512" fill="#fff"><path d="M 296 506.4 z m 0 0 M 301.1 505.6 c -1 0.2 -2 0.4 -3 0.5 c 1 -0.2 2 -0.3 3 -0.5 z m 0 0 M 283.9 508.1 z m 0 0 M 288.8 507.5 z m 0 0 M 308 504.2 z m 0 0 M 325.2 499.9 c -0.7 0.2 -1.4 0.4 -2.2 0.6 c 0.7 -0.2 1.4 -0.4 2.2 -0.6 z m 0 0 M 320 501.3 c -0.8 0.2 -1.6 0.4 -2.4 0.6 c 0.8 -0.2 1.6 -0.4 2.4 -0.6 z m 0 0 M 313.2 503 c -0.8 0.2 -1.7 0.4 -2.5 0.6 c 0.8 -0.2 1.7 -0.4 2.5 -0.6 z m 0 0 M 276.3 508.8 z m 0 0 M 509.7 254.9 C 509.7 114.1 395.6 0 254.9 0 S 0 114.1 0 254.9 s 114.1 254.9 254.9 254.9 c 1.5 0 3 0 4.5 -0.1 V 311.3 h -54.8 V 247.5 h 54.8 V 200.5 c 0 -54.5 33.2 -84.1 81.8 -84.1 c 23.3 0 43.3 1.7 49.1 2.5 v 56.9 h -33.5 c -26.4 0 -31.5 12.6 -31.5 31 v 40.6 h 63.2 l -8.2 63.8 h -55 V 499.9 C 431.8 469.4 509.7 371.2 509.7 254.9 z m 0 0 M 271.7 509.2 z m 0 0 M 263.6 509.6 z m 0 0"/>
</svg>