<svg xmlns="http://www.w3.org/2000/svg" height="512pt" width="512pt" viewBox="0 0 512 512" fill="#fff"><path d="M305 256c0 27.1-21.9 49-49 49s-49-21.9-49-49 21.9-49 49-49 49 21.9 49 49zm0 0"/><path d="M255.1 0C114.2 0 0 114 0 254.6s114.2 254.6 255.1 254.6 255.1-114 255.1-254.6S395.9 0 255.1 0zm145.6 314.9c-.7 15.5-3.2 26.2-6.8 35.5-7.6 19.6-23.1 35.2-42.8 42.8-9.3 3.6-19.9 6.1-35.6 6.8-15.6.7-20.6.9-60.4.9s-44.7-.2-60.4-.9c-15.5-.7-26.2-3.2-35.6-6.8-9.8-3.7-18.6-9.4-25.9-16.9-7.5-7.3-13.3-16.1-16.9-25.9-3.6-9.2-6.1-19.9-6.8-35.5-.7-15.6-.9-20.6-.9-60.3s.2-44.7.9-60.3c.7-15.5 3.2-26.2 6.8-35.5 3.7-9.7 9.5-18.6 16.9-25.9 7.3-7.5 16.1-13.2 25.9-16.9 9.4-3.6 19.9-6.1 35.6-6.8 15.6-.7 20.6-.9 60.4-.9s44.7.2 60.4.9c15.5.7 26.2 3.2 35.6 6.8 9.8 3.7 18.6 9.4 25.9 16.9 7.5 7.3 13.3 16.1 16.9 25.9 3.6 9.3 6.1 19.9 6.8 35.5.7 15.6.9 20.6.9 60.3s-.2 44.7-.9 60.3zm0 0"/><path d="M351.8 177.6c0 9.7-7.9 17.5-17.6 17.5s-17.6-7.8-17.6-17.5 7.9-17.5 17.6-17.5 17.6 7.8 17.6 17.5zm0 0"/></svg>