<svg xmlns="http://www.w3.org/2000/svg" height="512pt" width="512pt" viewBox="0 0 512 512" fill="#fff"><path d="M224.1 304l83.3-48-83.3-48zm0 0"/><path d="M254.9 0C114.1 0 0 114.1 0 254.9s114.1 254.9 254.9 254.9 254.9-114.1 254.9-254.9S395.6 0 254.9 0zm159.3 255.1s0 51.7-6.6 76.6c-3.7 13.6-14.4 24.4-28.1 28.1-24.9 6.6-124.6 6.6-124.6 6.6s-99.4 0-124.6-6.8c-13.6-3.7-24.4-14.4-28.1-28.1-6.6-24.7-6.6-76.6-6.6-76.6s0-51.7 6.6-76.6c3.7-13.6 14.7-24.7 28.1-28.3 24.9-6.6 124.6-6.6 124.6-6.6s99.7 0 124.6 6.8c13.6 3.7 24.4 14.4 28.1 28.1 6.8 24.9 6.6 76.9 6.6 76.9zm0 0"/></svg>